<?xml version="1.0" encoding="utf-8" standalone="no"?>
<!-- Svg Vector Icons : http://www.onlinewebfonts.com/icon -->
<!DOCTYPE svg PUBLIC "-//W3C//DTD SVG 1.1//EN" "http://www.w3.org/Graphics/SVG/1.1/DTD/svg11.dtd">
<svg version="1.1" xmlns="http://www.w3.org/2000/svg" xmlns:xlink="http://www.w3.org/1999/xlink" x="0px" y="0px"
     viewBox="0 0 1000 1000" enable-background="new 0 0 1000 1000">
  <metadata>Svg Vector Icons : http://www.onlinewebfonts.com/icon</metadata>
  <g>
    <path d="M220,500h70L150,290L10,500h70c0,231.9,188.1,420,420,420c49.1,0,96.2-8.9,140-24.5V741.2c-41.3,24.1-88.8,38.8-140,38.8C345.4,780,220,654.6,220,500z M920,500c0-231.9-188.2-420-420-420c-49.1,0-96.2,8.9-140,24.4v154.4c41.3-24.1,88.8-38.9,140-38.9c154.6,0,280,125.4,280,280h-70l140,210l140-210H920z"/>
  </g>
</svg>